<?xml version="1.0" standalone="no"?>
<!DOCTYPE svg PUBLIC "-//W3C//DTD SVG 20010904//EN"
 "http://www.w3.org/TR/2001/REC-SVG-20010904/DTD/svg10.dtd">
<svg version="1.0" xmlns="http://www.w3.org/2000/svg"
 width="696.000000pt" height="696.000000pt" viewBox="0 0 696.000000 696.000000"
 preserveAspectRatio="xMidYMid meet">
<metadata>
Created by potrace 1.11, written by Peter Selinger 2001-2013
</metadata>
<g transform="translate(0.000000,696.000000) scale(0.100000,-0.100000)"
fill="#000000" stroke="none">
<path d="M3978 4935 c-2 -1 -34 -5 -73 -8 -80 -6 -201 -35 -296 -71 -70 -26
-178 -75 -194 -88 -5 -5 -32 -23 -60 -41 -111 -71 -237 -198 -350 -352 -57
-77 -79 -90 -155 -90 -36 1 -94 5 -130 9 -79 11 -68 10 -162 2 -43 -3 -89 -11
-103 -16 -14 -5 -25 -8 -25 -6 0 8 -150 -54 -197 -80 -140 -78 -257 -188 -340
-319 -36 -58 -69 -123 -113 -220 -63 -140 -96 -171 -245 -224 -182 -66 -264
-107 -368 -184 -155 -116 -265 -272 -317 -453 -20 -67 -28 -207 -16 -263 38
-172 161 -340 304 -414 60 -31 128 -58 142 -56 3 0 17 -4 31 -10 15 -5 44 -12
66 -16 21 -3 48 -7 59 -9 88 -17 812 -26 2154 -27 555 0 1563 9 1670 15 545
33 796 209 864 604 13 75 14 272 2 325 -3 15 -8 37 -11 50 -20 96 -33 135 -76
225 -133 285 -367 480 -654 547 -38 9 -77 18 -87 21 -11 3 -21 28 -33 82 -86
396 -295 695 -626 895 -117 70 -285 134 -399 152 -25 4 -56 9 -70 11 -33 5
-188 12 -192 9z"/>
</g>
</svg>
