<?xml version="1.0" standalone="no"?>
<!DOCTYPE svg PUBLIC "-//W3C//DTD SVG 20010904//EN"
 "http://www.w3.org/TR/2001/REC-SVG-20010904/DTD/svg10.dtd">
<svg version="1.0" xmlns="http://www.w3.org/2000/svg"
 width="360.000000pt" height="360.000000pt" viewBox="0 0 360.000000 360.000000"
 preserveAspectRatio="xMidYMid meet">
<metadata>
Created by potrace 1.11, written by Peter Selinger 2001-2013
</metadata>
<g transform="translate(0.000000,360.000000) scale(0.100000,-0.100000)"
fill="#000000" stroke="none">
<path d="M2170 2918 c-83 -13 -212 -61 -287 -107 -74 -44 -146 -109 -235 -213
-87 -99 -114 -108 -284 -93 -180 16 -364 -65 -488 -217 -25 -29 -69 -103 -100
-165 -35 -70 -65 -118 -83 -131 -15 -10 -71 -35 -123 -55 -154 -58 -222 -100
-307 -189 -51 -55 -108 -153 -117 -202 -3 -14 -8 -30 -11 -36 -16 -25 -5 -169
16 -226 40 -106 153 -200 282 -235 69 -18 77 -19 207 -25 189 -9 2221 -10
2331 -1 348 27 512 186 513 497 0 140 -40 273 -117 385 -39 55 -155 162 -201
185 -25 12 -46 25 -47 28 -11 135 -55 266 -131 395 -142 242 -406 403 -676
411 -48 1 -112 -1 -142 -6z"/>
</g>
</svg>
